<svg xmlns="http://www.w3.org/2000/svg" width="200pt" height="200pt" viewBox="0 0 200 200"><g fill="#fff"><path d="M76.91 19.33c18.43-4.99 38.65-4.18 56.16 3.73 18.47 7.67 33.58 22.5 42.23 40.47 5.73 10.89 8.71 23.13 8.67 35.43.74 22.9-8.94 45.75-25.53 61.48-13.33 12.88-30.87 21.52-49.38 23.36-10.07.39-20.33.72-30.11-2.13-11.54-2.2-21.61-9.4-28.71-18.58 11.37 6.24 23.62 11.41 36.63 12.74 9.84 1.19 20.26 1.77 29.61-2.14 14.8-5.68 25.86-19.79 28.07-35.47 2.18-12.15-1.56-24.96-9-34.68-11.09-14.5-31.62-21.03-49-15.33-4.17 1.35-9.25 1-12.27-2.52-5.2-4.97-4.09-14.69 2.5-17.91 22.31-10.44 50.74-3.85 66.84 14.6 9.16 10.3 14.93 23.82 14.94 37.7.66 18.16-8.21 36.17-22.48 47.28-4.34 3.5-9.37 6.01-14.37 8.42 12.89-4.22 24.4-12.6 32.64-23.34 11.68-15.65 16.6-36.4 12.28-55.53-2.85-14.51-10.96-27.84-22.3-37.29-7.02-5.75-14.77-10.91-23.58-13.43-13.33-3.94-27.99-4.59-41.24 0-13.15 4.34-25.37 12.39-33.38 23.82-2.05 3.03-5.35 5.45-9.16 5.31-5.76.11-12.52-3.97-12.46-10.31.39-6.75 5.2-12.03 9.11-17.15 10.72-14.04 26.53-23.48 43.29-28.53Z" opacity="1.00"/><path d="M23.54 90.8c6.91-2.96 15.23 2.82 15.37 10.16.88 7.61-7.76 14.12-14.84 11.57-4.81-1.55-8.51-6.48-8.05-11.62.19-4.46 3.37-8.58 7.52-10.11ZM69.56 142.92c-1.58-14.36 9.34-28.46 23.3-31.41 8.6-1.9 18.11-.2 25.1 5.31 6.03 4.4 9.86 11.73 10 19.19.21 6.65-5.97 13.84-13.03 11.78-5.58-1.08-7.85-6.84-9.29-11.67-1.72-6.02-9.28-7.94-14.62-5.81-5.87 2.53-11.26 7.93-11.28 14.72-.59 9.1 5.96 17.51 14.38 20.41 7.41 2.72 15.86 1.32 22.42-2.9 3.6-1.84 6-5.24 9.45-7.28-5.71 9.13-15.92 15.94-26.95 15.46-15 .05-28.76-12.74-29.48-27.8ZM39.24 131.23c5.21-2.63 12.03 1.95 11.38 7.81.05 6.41-8.62 10.19-13.18 5.62-4.66-3.42-3.43-11.28 1.8-13.43Z" opacity="1.00"/></g></svg>