<svg xmlns="http://www.w3.org/2000/svg" width="200pt" height="200pt" viewBox="0 0 200 200"><g fill="#fff"><path d="M47.05 28.07c5.46-8.46 14.07-14.57 23.4-18.12-6.58 11.06-9.49 24.5-7.03 37.21 2.23 11.98 6.3 23.9 13.77 33.67 4.21 5.63 9.67 10.12 15.13 14.47-1.38.33-2.55-.73-3.82-1.06-10.54-3.31-21.27-6.87-30.3-13.43-8-5.95-14.37-14.66-15.94-24.67-1.94-9.54-.17-19.71 4.79-28.07ZM129.88 10.02c9.69 4.07 19.12 10.3 24.11 19.85 5.31 9.69 5.87 21.61 2.6 32.05-5.63 14.59-19.72 24.09-34.13 28.73-4.78 1.34-9.34 3.53-14.28 4.23 15.25-10.95 25.53-28.27 28.36-46.78 2.5-13.02-.3-26.59-6.66-38.08Z" opacity="1.00"/><path d="M21.87 66.98c.15-10.85 3.33-21.52 8.64-30.96.92 4.83 1.39 9.74 2.74 14.48 2.47 9.21 7.21 17.68 13.11 25.13 3.66 5 9.03 8.31 14.13 11.65 9.41 6.12 20.29 9.81 29.05 16.96 4.82 3.75 9.03 8.72 10.47 14.78.88-4.93 4.14-8.94 7.69-12.27 12.23-11.66 30-15.05 42.11-26.87 6.29-6.68 11.68-14.37 14.95-22.99 2.66-6.57 3.48-13.67 4.86-20.57 5.56 10.62 9.35 22.67 7.96 34.78-1.37 10.11-8.72 18.57-17.74 22.9-12.33 6.74-27.26 4.91-39.77 11.18-7.49 3.55-13.95 9.9-16.56 17.89-2.2 6.46-.04 13.98 5.08 18.43 3.21 3.07 7.4 4.71 11.6 5.9 1.65-.93 3.19-2.05 4.88-2.93 2.5-.9 5.18-.1 7.69.41-4.06 4.55-8.65 8.59-12.8 13.05-8.57 9.49-13.91 21.23-19.96 32.35-5.98-11.12-11.43-22.74-19.83-32.31-4.15-4.47-8.72-8.55-12.86-13.04 4.12-1.96 8.57-.78 11.88 2.13 7.6-.75 14.89-5.8 17.39-13.14 2.48-7.56-1.01-15.74-6.13-21.33-5.33-5.2-12.09-8.93-19.32-10.69-9.92-2.85-20.75-2.42-30.05-7.36-10.79-4.85-18.49-15.7-19.21-27.56m78.12 74.09c-2 6.28-7.78 10.58-13.99 12.15 4.92 1.67 10.5.28 13.97-3.61 3.46 3.84 9.12 5.57 14.05 3.73-6.07-1.99-12.01-5.88-14.03-12.27M92.22 161c2.86 4.29 5.62 8.67 7.81 13.35 2.4-4.58 4.6-9.31 7.86-13.36-2.99-1.12-5.53-3.06-7.96-5.07-2.28 2.11-4.83 3.88-7.71 5.08Z" opacity="1.00"/><path d="M11.25 73.24c2.18 2.05 3.42 4.86 5.27 7.19 7.28 10.64 17.33 20.78 30.44 23.38 7.37 2.36 15.25-.31 22.66 1.84 8.38 2.03 17.13 6.87 20.15 15.44 2.58 7.6-1.09 18.36-9.72 19.93-4.59.97-11.53-2-10.12-7.66 4.57-.43 9.64-1 13.12-4.32 4.32-5.04 1.41-13.45-4.59-15.64-3.01-1.28-6.39-.6-9.27.69-7.12 3.41-14.44 6.5-22.07 8.56-9.83 3.01-20.91-.51-28-7.74-10.25-10.9-12.47-27.76-7.87-41.67ZM188.56 73.16c4.46 12.11 3.06 26.46-4.14 37.26-5.06 7.93-14.03 12.98-23.43 13.25-11.13-.16-21.1-5.74-31.07-10.04-4.88-2.21-11.2-.28-13.82 4.44-2.72 4.53-.84 11.53 4.33 13.32 3.14 1.23 6.53 1.54 9.84 2.02.02 2.37-.72 4.91-2.85 6.22-4.76 2.96-11.66 1.41-14.79-3.23-5.71-7.31-3-18.44 3.78-24.1 5.25-4.26 11.88-6.47 18.5-7.44 5.31-.82 10.72.71 15.99-.49 6.66-1.17 13.02-3.96 18.34-8.13 8.04-6.21 13.52-14.9 19.32-23.08Z" opacity="1.00"/></g></svg>